<svg width="160" height="40" viewBox="0 0 160 40" fill="none" xmlns="http://www.w3.org/2000/svg">
<g clip-path="url(#clip0_2150_263)">
<path fill-rule="evenodd" clip-rule="evenodd" d="M17.4362 33.7329C17.5394 34.2082 17.5909 34.4433 17.4362 34.6112C17.2815 34.7791 17.0209 34.7558 16.4998 34.7119C13.59 34.4639 11.9614 33.9577 10.6884 33.4565C8.57118 32.6222 6.88829 31.0207 6.01156 29.0058C5.48498 27.7943 4.95025 26.2445 4.69239 23.4754C4.64625 22.982 4.62182 22.734 4.79825 22.5842C4.97197 22.437 5.22169 22.486 5.72113 22.5842C11.595 23.7414 16.2202 28.1431 17.4362 33.7329ZM23.0603 34.8127C22.6559 34.8307 22.455 34.8385 22.3139 34.73C22.1755 34.6215 22.1456 34.42 22.0859 34.0196C20.8671 25.8105 14.0433 19.3165 5.41712 18.1567C4.9964 18.0999 4.78739 18.0715 4.67068 17.9397C4.55667 17.808 4.56482 17.6143 4.58382 17.2294C4.66253 15.6175 4.82268 14.3518 5.02897 13.3211C5.09683 12.9827 5.1294 12.8123 5.27055 12.7089C5.41169 12.6056 5.59355 12.6185 5.95999 12.6444C17.6588 13.4813 26.9988 22.3698 27.8783 33.5004C27.9054 33.8492 27.919 34.0222 27.8104 34.1566C27.7019 34.2909 27.5227 34.3219 27.1671 34.3865C26.0814 34.5828 24.7514 34.7352 23.0603 34.8101V34.8127ZM33.5485 31.4055C33.0898 31.8834 32.8591 32.1236 32.5795 32.0436C32.2999 31.9635 32.2402 31.6096 32.1208 30.9018C30.1855 19.4767 20.7043 10.4539 8.69876 8.61211C7.95503 8.49845 7.58316 8.44163 7.49902 8.17298C7.41487 7.90692 7.66731 7.68736 8.16946 7.24823C8.90505 6.6102 9.75464 6.09099 10.6911 5.7216C12.4635 5.02158 14.9255 4.31122 20.5849 4.31122C26.2443 4.31122 28.7062 5.02158 30.4786 5.7216C32.5958 6.55595 34.2787 8.15748 35.1554 10.1723C35.891 11.8591 36.6375 14.202 36.6375 19.5878C36.6375 24.9736 35.891 27.3165 35.1554 29.0032C34.7673 29.8944 34.2217 30.7055 33.5513 31.4055H33.5485ZM-0.000703628 19.5878C-0.000703628 13.7473 0.821742 10.8258 1.82605 8.5217C3.16422 5.45038 5.72655 3.00933 8.95662 1.73585C11.3751 0.782684 14.445 0 20.5821 0C26.7193 0 29.7892 0.782684 32.2104 1.73844C35.4377 3.01191 38.0028 5.45038 39.3409 8.52429C40.3425 10.8284 41.1677 13.7499 41.1677 19.5904C41.1677 25.4308 40.3453 28.3523 39.3409 30.6564C38.0028 33.7278 35.4404 36.1688 32.2104 37.4397C29.7892 38.3955 26.7193 39.1781 20.5821 39.1781C14.445 39.1781 11.3751 38.3955 8.95391 37.4397C5.72655 36.1688 3.1615 33.7278 1.82333 30.6564C0.821741 28.3523 -0.00341797 25.4308 -0.00341797 19.5904L-0.000703628 19.5878Z" fill="white"/>
<path d="M156.828 32.8988C156.605 33.1596 156.288 33.4205 155.877 33.6814C155.483 33.926 155.012 34.1542 154.463 34.3662C153.915 34.5618 153.298 34.7249 152.613 34.8553C151.945 34.9858 151.225 35.051 150.454 35.051C148.981 35.051 147.644 34.8472 146.445 34.4396C145.246 34.0319 144.218 33.4531 143.361 32.7031C142.522 31.9368 141.862 31.0074 141.382 29.915C140.92 28.8226 140.688 27.5835 140.688 26.1976C140.688 24.9095 140.92 23.7274 141.382 22.6513C141.845 21.5752 142.505 20.6458 143.361 19.8632C144.218 19.0806 145.246 18.4773 146.445 18.0534C147.662 17.6132 149.015 17.3931 150.506 17.3931C151.928 17.3931 153.144 17.5643 154.155 17.9067C155.166 18.2328 155.937 18.5752 156.468 18.9339V23.1894C156.194 22.8144 155.851 22.4475 155.44 22.0888C155.046 21.7301 154.592 21.4122 154.078 21.135C153.581 20.8578 153.024 20.6377 152.407 20.4746C151.808 20.2953 151.174 20.2056 150.506 20.2056C149.529 20.2056 148.647 20.3524 147.859 20.6458C147.07 20.9393 146.402 21.3469 145.854 21.8687C145.306 22.3904 144.886 23.0263 144.595 23.7763C144.304 24.51 144.158 25.3253 144.158 26.222C144.158 27.0536 144.286 27.8362 144.543 28.5699C144.818 29.2873 145.212 29.915 145.726 30.4531C146.257 30.9911 146.916 31.4232 147.704 31.7493C148.493 32.0591 149.401 32.2221 150.429 32.2384C151.217 32.2384 151.936 32.1569 152.587 31.9939C153.255 31.8308 153.855 31.6107 154.386 31.3335C154.935 31.0563 155.414 30.7303 155.825 30.3553C156.237 29.9802 156.571 29.5726 156.828 29.1324V32.8988Z" fill="white"/>
<path d="M137.072 27.3718H128.797V31.9697H138.306V34.7822H125.584V17.6624H138.023V20.4749H128.797V24.5592H137.072V27.3718Z" fill="white"/>
<path d="M117.684 27.3718H107.841V34.7822H104.628V17.6624H107.841V24.5592H117.684V17.6624H120.896V34.7822H117.684V27.3718Z" fill="white"/>
<path d="M87.3505 18.9334C87.8645 18.5747 88.6269 18.2323 89.6377 17.9063C90.6486 17.5802 91.8736 17.4171 93.3127 17.4171C94.3236 17.4171 95.2402 17.5068 96.0626 17.6861C96.8849 17.8492 97.5874 18.1101 98.1699 18.4688C98.7696 18.8112 99.2236 19.2514 99.532 19.7894C99.8575 20.3275 100.02 20.9715 100.02 21.7215C100.02 23.6944 98.958 25.0395 96.8335 25.7569C99.5748 26.1482 100.945 27.4852 100.945 29.7679C100.945 30.5016 100.791 31.1945 100.483 31.8467C100.174 32.4826 99.7119 33.037 99.0951 33.5098C98.4783 33.9663 97.7073 34.3332 96.7821 34.6104C95.8741 34.8875 94.8204 35.0261 93.6211 35.0261C92.7987 35.0261 92.0278 34.9609 91.3082 34.8305C90.6057 34.7163 89.9632 34.5614 89.3807 34.3658C88.8153 34.1538 88.3185 33.9256 87.8902 33.681C87.479 33.4201 87.1534 33.1592 86.9136 32.8984V29.132C87.1877 29.5722 87.5389 29.9798 87.9672 30.3548C88.3956 30.7298 88.8924 31.0559 89.4578 31.3331C90.0232 31.6103 90.6571 31.8304 91.3596 31.9935C92.0791 32.1402 92.8501 32.2136 93.6725 32.2136C94.2208 32.2136 94.7348 32.1565 95.2145 32.0424C95.6942 31.9282 96.1054 31.7652 96.448 31.5532C96.8078 31.325 97.0905 31.0478 97.2961 30.7217C97.5017 30.3956 97.6045 30.0124 97.6045 29.5722C97.6045 28.8059 97.2876 28.2434 96.6536 27.8847C96.0369 27.526 95.026 27.3466 93.6211 27.3466H90.897V24.8276H93.5954C94.1779 24.8276 94.6662 24.7705 95.0603 24.6564C95.4543 24.5259 95.7713 24.3547 96.0112 24.1428C96.251 23.9308 96.4223 23.6862 96.5251 23.4091C96.6451 23.1319 96.705 22.8303 96.705 22.5042C96.705 22.1128 96.6194 21.7786 96.448 21.5014C96.2767 21.2079 96.0369 20.9715 95.7285 20.7922C95.4201 20.6128 95.0603 20.4824 94.6491 20.4009C94.2379 20.303 93.7924 20.246 93.3127 20.2297C92.6274 20.2134 91.9764 20.2867 91.3596 20.4498C90.7599 20.6128 90.2031 20.8411 89.6891 21.1346C89.1923 21.4117 88.7382 21.7297 88.327 22.0884C87.933 22.4471 87.6075 22.8139 87.3505 23.189V18.9334Z" fill="white"/>
<path d="M69.9195 30.4533L79.7366 17.6624H83.2317V34.7822H80.0193V21.7956L70.1507 34.7822H66.707V17.6624H69.9195V30.4533Z" fill="white"/>
<path d="M48.9893 17.6624H61.7618V20.4749H52.2017V23.532H55.7225C58.2068 23.532 60.0657 23.9804 61.2993 24.8772C62.55 25.7739 63.1753 27.168 63.1753 29.0593C63.1753 30.005 62.9954 30.8365 62.6356 31.5539C62.293 32.255 61.7875 32.8501 61.1194 33.3393C60.4683 33.8121 59.6802 34.1708 58.755 34.4154C57.8298 34.6599 56.7933 34.7822 55.6454 34.7822H48.9893V17.6624ZM52.2017 26.3446V31.9697H55.6197C56.2536 31.9697 56.8276 31.9208 57.3416 31.8229C57.8727 31.7251 58.3181 31.5621 58.6779 31.3338C59.0548 31.1055 59.3375 30.8039 59.526 30.4289C59.7316 30.0376 59.8344 29.5566 59.8344 28.9859C59.8344 27.9587 59.4746 27.2658 58.755 26.9071C58.0526 26.5321 57.0075 26.3446 55.6197 26.3446H52.2017Z" fill="white"/>
<g clip-path="url(#clip1_2150_263)">
<path d="M53.7724 7.11568C54.7156 6.65749 55.1914 5.90189 55.1914 4.86227C55.1914 4.4148 55.0985 4.0236 54.9155 3.69671C54.7325 3.3725 54.465 3.09919 54.1243 2.88752C53.7893 2.6812 53.3838 2.52311 52.9193 2.42397C52.4631 2.32484 51.9451 2.27393 51.3848 2.27393C50.5852 2.27393 49.8925 2.37039 49.3266 2.56063C48.7635 2.75087 48.3299 2.9545 48.0371 3.16618L47.9808 3.20637V6.1618L48.2398 5.76792C48.3749 5.56428 48.5495 5.36064 48.7607 5.16504C48.9718 4.96677 49.2168 4.78992 49.4815 4.63184C49.7461 4.47643 50.0418 4.35317 50.3599 4.26207C50.6781 4.17365 51.0188 4.13346 51.3763 4.1415C51.6269 4.14954 51.8634 4.17901 52.0802 4.22992C52.2886 4.27815 52.4716 4.34781 52.6264 4.44159C52.7728 4.53002 52.8911 4.64791 52.9727 4.78992C53.0544 4.93193 53.0966 5.1061 53.0966 5.30437C53.0966 5.47318 53.0685 5.63127 53.015 5.77328C52.9615 5.91261 52.877 6.03586 52.7616 6.14036C52.6461 6.24754 52.4885 6.33328 52.2942 6.39491C52.0943 6.45921 51.8409 6.49137 51.5396 6.49137H49.9235V8.19549H51.5537C52.2914 8.19549 52.8263 8.29195 53.1445 8.48219C53.4458 8.66172 53.5922 8.94038 53.5922 9.3289C53.5922 9.55397 53.5415 9.75225 53.4429 9.9157C53.3416 10.0818 53.2036 10.2265 53.0291 10.339C52.8517 10.4543 52.6377 10.5454 52.3927 10.6043C52.1422 10.6659 51.8719 10.6981 51.5847 10.6981C51.1483 10.6981 50.7344 10.6552 50.3599 10.5695C49.9854 10.4837 49.6448 10.3632 49.3463 10.2131C49.0507 10.0604 48.786 9.88086 48.5608 9.67722C48.3383 9.47359 48.1525 9.25119 48.0089 9.01004L47.7471 8.57061V11.2715L47.7809 11.309C47.9216 11.4671 48.1131 11.6225 48.3524 11.7725C48.5889 11.9226 48.8733 12.0566 49.1943 12.1745C49.5152 12.2924 49.8784 12.3888 50.2726 12.4612C50.6668 12.5308 51.1004 12.5683 51.5565 12.5683C52.2238 12.5683 52.8235 12.4853 53.336 12.3245C53.8512 12.1611 54.2904 11.9414 54.6396 11.6654C54.9915 11.3894 55.2618 11.0545 55.4392 10.6686C55.6137 10.2855 55.7038 9.87282 55.7038 9.43875C55.7038 8.20353 55.0563 7.42113 53.778 7.10764L53.7724 7.11568Z" fill="white"/>
<path d="M64.1089 7.17384C64.4637 6.9836 64.7368 6.73442 64.9255 6.43432C65.1732 6.04312 65.2971 5.55278 65.2971 4.97134C65.2971 3.27258 64.1343 2.41248 61.8396 2.41248H57.4248V12.4336H61.6003C62.2084 12.4336 62.7603 12.3773 63.2418 12.2701C63.7317 12.1603 64.154 11.9834 64.5003 11.7477C64.8523 11.5065 65.1254 11.193 65.3112 10.8098C65.497 10.432 65.5927 9.97654 65.5927 9.45673C65.5927 8.78955 65.4407 8.25098 65.1451 7.85442C64.9086 7.53825 64.5594 7.30782 64.1089 7.17384ZM59.4633 4.28541H61.6284C62.2197 4.28541 62.6477 4.37919 62.8983 4.56407C63.1404 4.74359 63.2586 5.00082 63.2586 5.34914C63.2586 5.72695 63.1179 6.01097 62.8307 6.21728C62.535 6.43164 62.1155 6.53882 61.5862 6.53882H59.4633V4.28541ZM63.1207 10.2632C62.8279 10.4642 62.3548 10.566 61.7129 10.566H59.4633V8.17328H61.7411C62.3295 8.17328 62.7884 8.26438 63.101 8.44658C63.3966 8.61806 63.5402 8.90744 63.5402 9.33615C63.5402 9.76487 63.4022 10.073 63.1207 10.2659V10.2632Z" fill="white"/>
<path d="M71.411 7.89767L68.3449 2.41553H65.9883L70.3665 10.1859C70.2736 10.352 70.1722 10.4673 70.0596 10.5289C69.7808 10.6843 69.4036 10.6602 69.0854 10.5396C68.9165 10.478 68.7701 10.3895 68.6546 10.2824L68.4153 10.0627V12.2786L68.4998 12.3134C68.6377 12.3723 68.8151 12.4259 69.0235 12.4742C69.2346 12.5224 69.4627 12.5465 69.6964 12.5465C69.961 12.5465 70.2144 12.5117 70.4481 12.442C70.6846 12.3723 70.9155 12.2491 71.1351 12.0749C71.3519 11.9061 71.5631 11.6757 71.7658 11.3917C71.9657 11.113 72.1684 10.7513 72.3683 10.3199L76.068 2.41553H73.9169L71.411 7.89767Z" fill="white"/>
<path d="M82.2709 7.18761L86.131 2.41553H83.6364L80.4745 6.5124H79.2103V2.41553H77.1719V12.4366H79.2103V8.21384H80.5618L84.1319 12.4366H86.7448L82.2709 7.18761Z" fill="white"/>
</g>
</g>
<defs>
<clipPath id="clip0_2150_263">
<rect width="159.723" height="39.1756" fill="white"/>
</clipPath>
<clipPath id="clip1_2150_263">
<rect width="39.004" height="10.2998" fill="white" transform="translate(47.7407 2.27734)"/>
</clipPath>
</defs>
</svg>
